<svg xmlns="http://www.w3.org/2000/svg" width="280" height="280" viewBox="0 0 280 280">
  <defs>
    <radialGradient id="radialGradient-1" cx="24.86%" cy="0%" r="100%" fx="24.86%" fy="0%">
      <stop offset="0%" stop-color="#FFA941"/>
      <stop offset="100%" stop-color="#FFFFFF"/>
    </radialGradient>
    <radialGradient id="radialGradient-2" cx="0%" cy="0%" r="135.572%" fx="0%" fy="0%" gradientTransform="matrix(0 1 -.77263 0 0 0)">
      <stop offset="0%" stop-color="#FFA400"/>
      <stop offset="100%" stop-color="#000000"/>
    </radialGradient>
  </defs>
  <g id="empty-state" fill="none" fill-rule="evenodd" stroke="none" stroke-width="1">
    <circle id="body" cx="140" cy="140" r="133.519" fill="#FFA941"/>
    <path id="Combined-Shape" fill="url(#radialGradient-1)" fill-rule="nonzero" d="M80.2465661,13.3557882 C98.3689146,4.79024943 118.625046,0 140,0 C217.319865,0 280,62.680135 280,140 C280,217.319865 217.319865,280 140,280 C62.680135,280 0,217.319865 0,140 C0,86.8917856 29.5713498,40.69033 73.1465629,16.9631199 C71.5879002,13.9115537 69.8315944,10.7079212 67.2,6.4 C63.6,6.66716682e-12 71.1065137,-0.606174748 72.2895643,1.19208941 C73.1073682,2.43517005 75.7597021,6.48973632 80.2465661,13.3557882 Z M76.2499197,23.2455926 C34.984549,45.8251018 7,89.6444801 7,140 C7,213.453872 66.5461283,273 140,273 C213.453872,273 273,213.453872 273,140 C273,66.5461283 213.453872,7 140,7 C120.039251,7 101.105528,11.3972159 84.1146624,19.2758141 C86.6205148,23.1114119 89.5156273,27.5435654 92.8,32.5722746 C94.8689017,35.9610409 96.5379251,38.8746089 97.9419362,41.3430936 C98.6503991,31.8650464 107.593008,25.1052679 122.44333,28.1076758 C146.324914,28.1273262 166.177137,31.558101 182,38.4 C216.146586,53.1651849 249.705732,91.6189182 245.864598,139.336928 C195.378359,123.572775 162.328887,107.982493 146.716184,92.5660824 C132.846749,78.8710222 124.218386,60.3890641 120.831097,37.1202079 C107.743699,31.2946883 101.2,34.5212857 101.2,46.8 L101.096484,46.8 C101.097032,46.8009011 101.097581,46.8018022 101.098129,46.8027031 C104.73315,46.9978041 107.813511,48.821102 108.900888,51.808645 C110.487585,56.1680594 107.230218,61.355497 101.625256,63.3955361 C96.0202949,65.4355752 90.1900216,63.5551372 88.6033246,59.1957229 C87.9139465,57.3016722 88.1389696,55.2513178 89.0736473,53.3707017 C85.4907018,46.9408844 83.2165651,37.1999013 78.4,27.6 C77.6081542,26.0217712 76.907065,24.592229 76.2499197,23.2455926 Z"/>
    <path id="Combined-Shape" fill="url(#radialGradient-2)" fill-rule="nonzero" d="M101.096484,46.8 C101.097032,46.8009011 101.097581,46.8018022 101.098129,46.8027031 C104.73315,46.9978041 107.813511,48.821102 108.900888,51.808645 C110.487585,56.1680594 107.230218,61.355497 101.625256,63.3955361 C96.0202949,65.4355752 90.1900216,63.5551372 88.6033246,59.1957229 C87.9139465,57.3016722 88.1389696,55.2513178 89.0736473,53.3707017 C85.4907018,46.9408844 83.2165651,37.1999013 78.4,27.6 C74.3721393,19.5720663 72.6925373,15.3912858 67.2,6.4 C63.6,6.65351108e-12 71.1065137,-0.606174748 72.2895643,1.19208941 C73.6965214,3.33069647 80.5333333,13.7907582 92.8,32.5722746 C94.8689017,35.9610409 96.5379251,38.8746089 97.9419362,41.3430936 C98.6503991,31.8650464 107.593008,25.1052679 122.44333,28.1076758 C146.324914,28.1273262 166.177137,31.558101 182,38.4 C216.146586,53.1651849 249.705732,91.6189182 245.864598,139.336928 C195.378359,123.572775 162.328887,107.982493 146.716184,92.5660824 C132.846749,78.8710222 124.218386,60.3890641 120.831097,37.1202079 C107.743699,31.2946883 101.2,34.5212857 101.2,46.8 L101.096484,46.8 Z"/>
  </g>
</svg>
