<svg xmlns="http://www.w3.org/2000/svg" width="432" height="432" viewBox="0 0 432 432">
  <g id="logo" fill="none" fill-rule="evenodd" stroke="none" stroke-width="1">
    <circle id="body" cx="216" cy="216" r="210.6" fill="#FFA941"/>
    <path id="Combined-Shape" fill="#000000" fill-rule="nonzero" d="M123.808988,20.6060732 C151.769183,7.39067056 183.021499,0 216,0 C335.293506,0 432,96.706494 432,216 C432,335.293506 335.293506,432 216,432 C96.706494,432 0,335.293506 0,216 C0,134.061612 45.6243683,62.7793664 112.854697,26.1716706 C110.449903,21.46354 107.740174,16.5207927 103.68,9.87428571 C98.1257143,1.02835518e-11 109.707193,-0.935241039 111.532471,1.83922366 C112.794225,3.75711951 116.886398,10.012736 123.808988,20.6060732 Z M117.642733,35.8646286 C53.9761614,70.7015857 10.8,138.308626 10.8,216 C10.8,329.328831 102.671169,421.2 216,421.2 C329.328831,421.2 421.2,329.328831 421.2,216 C421.2,102.671169 329.328831,10.8 216,10.8 C185.203416,10.8 155.991385,17.584276 129.776908,29.7398274 C133.64308,35.6576069 138.109825,42.4957867 143.177143,50.2543666 C146.369163,55.4827488 148.944227,59.977968 151.110416,63.7864873 C152.203473,49.1632144 166.00064,38.7338419 188.912566,43.3661283 C225.758439,43.3964462 256.387584,48.6896415 280.8,59.2457143 C333.483304,82.0262853 385.260272,141.354902 379.333952,214.976974 C301.440896,190.655138 250.450283,166.601561 226.362112,142.816241 C204.963555,121.68672 191.651224,93.1716989 186.425121,57.271178 C166.233136,48.2832334 156.137143,53.2614122 156.137143,72.2057143 L155.977432,72.2057143 C155.978279,72.2071046 155.979125,72.2084948 155.979971,72.2098848 C161.588288,72.5108977 166.340846,75.3239859 168.018513,79.933338 C170.46656,86.6592916 165.440907,94.6627668 156.793253,97.8102557 C148.145598,100.957745 139.150319,98.0564975 136.702272,91.3305438 C135.63866,88.4082943 135.985839,85.2448904 137.427913,82.3433683 C131.89994,72.4230788 128.391272,57.3941335 120.96,42.5828571 C119.738295,40.1478755 118.656615,37.9422961 117.642733,35.8646286 Z"/>
  </g>
</svg>
