<?xml version="1.0" standalone="no"?>
<!DOCTYPE svg PUBLIC "-//W3C//DTD SVG 1.1//EN" "http://www.w3.org/Graphics/SVG/1.1/DTD/svg11.dtd" >
<svg xmlns="http://www.w3.org/2000/svg">
<metadata>Generated by IcoMoon</metadata>
<defs>
<font id="orange-icons" horiz-adv-x="1024">
<font-face units-per-em="1024" ascent="870.4" descent="-153.6" />
<missing-glyph horiz-adv-x="1024" />
<glyph unicode="&#x20;" horiz-adv-x="0" d="" />
<glyph unicode="&#xe800;" glyph-name="caret-up" d="M664.576 248.576c10.24-10.24 26.624-10.24 35.84 0 10.24 10.24 10.24 26.624 0 35.84l-169.984 171.008c-10.24 10.24-26.624 10.24-36.864 0l-169.984-171.008c-10.24-9.216-10.24-25.6 0-35.84 9.216-10.24 25.6-10.24 35.84 0l152.576 152.576 152.576-152.576z" />
<glyph unicode="&#xe801;" glyph-name="code" d="M643.072 156.416l195.584 195.584-195.584 195.584c-10.24 9.216-10.24 25.6 0 35.84s26.624 10.24 36.864 0l212.992-212.992c10.24-10.24 10.24-26.624 0-36.864l-212.992-212.992c-10.24-10.24-26.624-10.24-36.864 0s-10.24 26.624 0 35.84zM185.344 352l195.584-195.584c10.24-9.216 10.24-25.6 0-35.84s-26.624-10.24-35.84 0l-214.016 212.992c-10.24 10.24-10.24 26.624 0 36.864l214.016 212.992c9.216 10.24 25.6 10.24 35.84 0s10.24-26.624 0-35.84l-195.584-195.584z" />
<glyph unicode="&#xe802;" glyph-name="external" d="M742.4 341.76v-202.752c0-9.216-7.168-17.408-17.408-17.408h-425.984c-9.216 0-17.408 8.192-17.408 17.408v425.984c0 10.24 8.192 17.408 17.408 17.408h202.752c13.312 0 25.6 11.264 25.6 25.6s-12.288 25.6-25.6 25.6h-202.752c-37.888 0-68.608-30.72-68.608-68.608v-425.984c0-37.888 30.72-68.608 68.608-68.608h425.984c37.888 0 68.608 30.72 68.608 68.608v202.752c0 13.312-11.264 25.6-25.6 25.6s-25.6-12.288-25.6-25.6zM743.424 547.584l-234.496-234.496c-10.24-10.24-26.624-10.24-35.84 0-10.24 9.216-10.24 25.6 0 35.84l235.52 235.52-52.224 13.312c-11.264 2.048-18.432 14.336-15.36 25.6 1.024 7.168 7.168 13.312 14.336 15.36l164.864 45.056c11.264 3.072 22.528-4.096 25.6-15.36 1.024-3.072 1.024-7.168 0-11.264l-45.056-166.912c-3.072-12.288-15.36-18.432-26.624-15.36-7.168 2.048-13.312 7.168-15.36 15.36l-15.36 57.344z" />
<glyph unicode="&#xe803;" glyph-name="integrations" d="M322.56 228.096c-44.032 0-67.584 51.2-39.936 84.992l330.752 388.096c36.864 44.032 107.52 2.048 86.016-52.224l-74.752-190.464h74.752c44.032 0 67.584-51.2 38.912-84.992l-326.656-374.784c-38.912-44.032-108.544 0-86.016 53.248l75.776 176.128h-78.848zM478.208 279.296l-105.472-246.784 326.656 374.784h-149.504l102.4 260.096-329.728-388.096h155.648z" />
<glyph unicode="&#xe805;" glyph-name="archive" d="M448.512 570.112c0-7.168 6.144-14.336 13.312-14.336h78.848c8.192 0 14.336 7.168 14.336 14.336v16.384h-106.496v-16.384zM618.496 586.496v-16.384c0-43.008-34.816-77.824-77.824-77.824h-78.848c-43.008 0-77.824 34.816-77.824 77.824v16.384h-106.496v-476.16c1.024-16.384 11.264-27.648 25.6-27.648h399.36c12.288 0 21.504 10.24 22.528 25.6v478.208h-106.496zM789.504 586.496v-481.28c-4.096-49.152-38.912-87.040-87.040-87.040h-399.36c-49.152 0-87.040 38.912-90.112 90.112v478.208h-10.24c-43.008 0-43.008 64.512 0 64.512h596.992c43.008 0 43.008-64.512 0-64.512h-10.24z" />
<glyph unicode="&#xe806;" glyph-name="mail" horiz-adv-x="922" d="M30.72 593.664q-32.768 18.432-28.672 40.96 2.048 14.336 26.624 14.336h866.304q38.912 0 20.48-32.768-8.192-14.336-24.576-22.528-14.336-6.144-196.608-104.448t-186.368-100.352q-16.384-10.24-47.104-10.24-28.672 0-47.104 10.24-4.096 2.048-186.368 100.352t-196.608 104.448zM901.12 491.264q20.48 10.24 20.48-10.24v-376.832q0-16.384-17.408-32.768t-33.792-16.384h-819.2q-16.384 0-33.792 16.384t-17.408 32.768v376.832q0 20.48 20.48 10.24l393.216-204.8q18.432-10.24 47.104-10.24t47.104 10.24z" />
<glyph unicode="&#xe808;" glyph-name="arrow-down" d="M486.4 162.56v445.44c0 14.336 11.264 25.6 25.6 25.6s25.6-11.264 25.6-25.6v-454.656l131.072 131.072c10.24 10.24 26.624 10.24 36.864 0 9.216-9.216 9.216-25.6 0-35.84l-171.008-171.008c-10.24-9.216-26.624-9.216-35.84 0l-171.008 171.008c-10.24 10.24-10.24 26.624 0 35.84 10.24 10.24 25.6 10.24 35.84 0l122.88-121.856z" />
<glyph unicode="&#xe809;" glyph-name="arrow-left" d="M317.44 377.6h450.56c14.336 0 25.6-11.264 25.6-25.6s-11.264-25.6-25.6-25.6h-450.56l126.976-126.976c10.24-10.24 10.24-26.624 0-35.84-9.216-10.24-25.6-10.24-35.84 0l-171.008 169.984c-9.216 10.24-9.216 26.624 0 36.864l171.008 169.984c10.24 10.24 26.624 10.24 35.84 0 10.24-9.216 10.24-25.6 0-35.84l-126.976-126.976z" />
<glyph unicode="&#xe80a;" glyph-name="arrow-right" d="M706.56 377.6l-126.976 126.976c-10.24 10.24-10.24 26.624 0 35.84 9.216 10.24 25.6 10.24 35.84 0l171.008-169.984c10.24-10.24 10.24-26.624 0-36.864l-171.008-169.984c-10.24-10.24-26.624-10.24-35.84 0-10.24 9.216-10.24 25.6 0 35.84l126.976 126.976h-450.56c-14.336 0-25.6 11.264-25.6 25.6s11.264 25.6 25.6 25.6h450.56z" />
<glyph unicode="&#xe80b;" glyph-name="arrow-up" d="M537.6 546.56v-450.56c0-14.336-11.264-25.6-25.6-25.6s-25.6 11.264-25.6 25.6v450.56l-126.976-126.976c-10.24-10.24-26.624-10.24-35.84 0-10.24 9.216-10.24 25.6 0 35.84l169.984 171.008c10.24 9.216 26.624 9.216 36.864 0l169.984-171.008c10.24-10.24 10.24-26.624 0-35.84-9.216-10.24-25.6-10.24-35.84 0l-126.976 126.976z" />
<glyph unicode="&#xe80c;" glyph-name="arrow-skip" d="M578.56 377.6l-84.992 83.968c-9.216 10.24-9.216 26.624 0 36.864 10.24 9.216 26.624 9.216 36.864 0l128-128c10.24-10.24 10.24-26.624 0-36.864l-128-128c-10.24-9.216-26.624-9.216-36.864 0-9.216 10.24-9.216 26.624 0 36.864l84.992 83.968h-386.048c-14.336 0-25.6 11.264-25.6 25.6s11.264 25.6 25.6 25.6h386.048zM643.072 199.424l152.576 152.576-152.576 152.576c-10.24 10.24-10.24 26.624 0 35.84 10.24 10.24 26.624 10.24 36.864 0l169.984-169.984c10.24-10.24 10.24-26.624 0-36.864l-169.984-169.984c-10.24-10.24-26.624-10.24-36.864 0-10.24 9.216-10.24 25.6 0 35.84z" />
<glyph unicode="&#xe80d;" glyph-name="dashboard" d="M836.608 503.552c-26.624 18.432-43.008 49.152-43.008 82.944 0 56.32 46.080 102.4 102.4 102.4s102.4-46.080 102.4-102.4c0-56.32-46.080-102.4-102.4-102.4-4.096 0-8.192 0-12.288 1.024l-78.848-185.344c-6.144-14.336-16.384-25.6-30.72-32.768-32.768-18.432-73.728-5.12-92.16 27.648l-98.304 184.32c-1.024 4.096-4.096 6.144-7.168 8.192-9.216 4.096-18.432 0-23.552-8.192l-113.664-234.496c-14.336-29.696-47.104-45.056-77.824-36.864l-110.592 27.648c-6.144 2.048-13.312-1.024-17.408-6.144l-153.6-191.488c-9.216-11.264-24.576-13.312-35.84-4.096-11.264 8.192-13.312 24.576-4.096 35.84l153.6 191.488c16.384 21.504 44.032 30.72 69.632 23.552l110.592-26.624c8.192-2.048 16.384 1.024 19.456 8.192l114.688 235.52c16.384 33.792 57.344 48.128 91.136 31.744 12.288-7.168 23.552-17.408 29.696-29.696l98.304-184.32c5.12-8.192 15.36-11.264 23.552-7.168 3.072 2.048 6.144 5.12 7.168 8.192l78.848 183.296zM896 535.296c28.672 0 51.2 23.552 51.2 51.2 0 28.672-22.528 51.2-51.2 51.2s-51.2-22.528-51.2-51.2c0-27.648 22.528-51.2 51.2-51.2z" />
<glyph unicode="&#xe80e;" glyph-name="desktop" d="M486.4 58.112v118.784h-293.888c-37.888 0-68.608 30.72-68.608 68.608v384c0 37.888 30.72 68.608 68.608 68.608h640c36.864 0 67.584-30.72 67.584-68.608v-384c0-37.888-30.72-68.608-67.584-68.608h-294.912v-118.784h132.096c14.336 0 25.6-12.288 25.6-25.6 0-14.336-11.264-25.6-25.6-25.6h-311.296c-14.336 0-25.6 11.264-25.6 25.6 0 13.312 11.264 25.6 25.6 25.6h128zM192.512 646.912c-10.24 0-17.408-8.192-17.408-17.408v-384c0-9.216 7.168-17.408 17.408-17.408h640c9.216 0 16.384 8.192 16.384 17.408v384c0 9.216-7.168 17.408-16.384 17.408h-640z" />
<glyph unicode="&#xe80f;" glyph-name="editor" d="M153.6 326.4h-29.696v47.104h29.696c34.816 0 51.2 15.36 51.2 50.176l-12.288 128c0 24.576 8.192 47.104 26.624 64.512 17.408 17.408 38.912 26.624 64.512 26.624 21.504 0 40.96-5.12 57.344-15.36l-9.216-39.936c-14.336 9.216-23.552 12.288-39.936 12.288-29.696 0-49.152-20.48-49.152-51.2l12.288-132.096c0-38.912-17.408-59.392-61.44-65.536v-2.048c44.032-6.144 61.44-26.624 61.44-65.536l-12.288-132.096c0-30.72 19.456-51.2 49.152-51.2 16.384 0 25.6 3.072 39.936 12.288l9.216-39.936c-16.384-10.24-35.84-15.36-57.344-15.36-52.224 0-91.136 39.936-91.136 91.136l12.288 128c0 34.816-16.384 50.176-51.2 50.176zM494.592 212.736c51.2 0 83.968 34.816 83.968 92.16v28.672c-11.264 1.024-22.528 2.048-31.744 2.048-78.848 0-115.712-22.528-115.712-67.584 0-34.816 24.576-55.296 63.488-55.296zM515.072 527.104c75.776 0 116.736-36.864 116.736-105.472v-177.152c0-19.456 8.192-29.696 24.576-29.696 8.192 0 16.384 2.048 21.504 7.168l3.072-41.984c-8.192-5.12-23.552-9.216-36.864-9.216-25.6 0-45.056 11.264-55.296 30.72-3.072 7.168-6.144 15.36-8.192 26.624-13.312-35.84-53.248-58.368-99.328-58.368-63.488 0-105.472 38.912-105.472 96.256 0 71.68 59.392 110.592 171.008 110.592 5.12 0 12.288 0 31.744-1.024v39.936c0 41.984-23.552 65.536-67.584 65.536-40.96 0-64.512-20.48-66.56-61.44l-54.272 10.24c7.168 59.392 55.296 97.28 124.928 97.28zM871.424 326.4c-35.84 0-51.2-15.36-51.2-50.176l12.288-128c0-51.2-39.936-91.136-92.16-91.136-21.504 0-40.96 5.12-57.344 15.36l10.24 39.936c13.312-9.216 22.528-12.288 38.912-12.288 30.72 0 49.152 20.48 49.152 51.2l-12.288 132.096c0 38.912 17.408 59.392 61.44 65.536v2.048c-44.032 6.144-61.44 26.624-61.44 65.536l12.288 132.096c0 30.72-18.432 51.2-49.152 51.2-16.384 0-25.6-3.072-38.912-12.288l-10.24 39.936c16.384 10.24 35.84 15.36 57.344 15.36 25.6 0 47.104-9.216 65.536-26.624 17.408-17.408 26.624-39.936 26.624-64.512l-12.288-128c0-34.816 15.36-50.176 51.2-50.176h28.672v-47.104h-28.672z" />
<glyph unicode="&#xe810;" glyph-name="events" d="M405.504 582.4v-119.808h317.44c9.216 0 17.408 8.192 16.384 17.408l-1.024 86.016c0 9.216-7.168 16.384-16.384 16.384h-316.416zM722.944 411.392h-421.888c-37.888 0-68.608 30.72-68.608 68.608v84.992c0 37.888 30.72 68.608 68.608 68.608h420.864c36.864 0 67.584-29.696 67.584-67.584l1.024-84.992c1.024-37.888-29.696-68.608-66.56-69.632-1.024 0-1.024 0-1.024 0zM405.504 241.408v-119.808h317.44c9.216 0 17.408 8.192 16.384 17.408l-1.024 84.992c0 9.216-7.168 17.408-16.384 17.408h-316.416zM722.944 70.4h-421.888c-37.888 0-68.608 30.72-68.608 68.608v84.992c0 37.888 30.72 68.608 68.608 68.608h420.864c36.864 0 67.584-30.72 67.584-67.584l1.024-84.992c1.024-37.888-29.696-68.608-66.56-69.632-1.024 0-1.024 0-1.024 0z" />
<glyph unicode="&#xe811;" glyph-name="audience" d="M537.6 471.808h-51.2c0 114.688-93.184 208.896-208.896 208.896s-208.896-94.208-208.896-208.896c0-115.712 93.184-208.896 208.896-208.896v-51.2c-143.36 0-260.096 115.712-260.096 260.096 0 143.36 116.736 260.096 260.096 260.096s260.096-116.736 260.096-260.096zM145.408 450.304h51.2c0-45.056 35.84-80.896 80.896-80.896 6.144 0 13.312 1.024 19.456 2.048l12.288-49.152c-10.24-3.072-20.48-4.096-31.744-4.096-72.704 0-132.096 59.392-132.096 132.096zM179.2 493.312c-23.552 0-43.008 18.432-43.008 41.984s19.456 43.008 43.008 43.008c23.552 0 43.008-19.456 43.008-43.008s-19.456-41.984-43.008-41.984zM371.712 493.312c-23.552 0-43.008 18.432-43.008 41.984s19.456 43.008 43.008 43.008c23.552 0 41.984-19.456 41.984-43.008s-18.432-41.984-41.984-41.984zM746.496 211.712v51.2c115.712 0 208.896 93.184 208.896 208.896 0 114.688-93.184 208.896-208.896 208.896s-208.896-94.208-208.896-208.896h-51.2c0 143.36 116.736 260.096 260.096 260.096 144.384 0 260.096-116.736 260.096-260.096 0-144.384-115.712-260.096-260.096-260.096zM713.728 322.304l13.312 49.152c6.144-1.024 13.312-2.048 19.456-2.048 45.056 0 80.896 35.84 80.896 80.896h51.2c0-72.704-58.368-132.096-132.096-132.096-11.264 0-21.504 1.024-32.768 4.096zM648.192 493.312c-23.552 0-41.984 18.432-41.984 41.984s18.432 43.008 41.984 43.008c23.552 0 43.008-19.456 43.008-43.008s-19.456-41.984-43.008-41.984zM840.704 493.312c-23.552 0-43.008 18.432-43.008 41.984s19.456 43.008 43.008 43.008c23.552 0 43.008-19.456 43.008-43.008s-19.456-41.984-43.008-41.984zM512-23.808c-143.36 0-260.096 116.736-260.096 261.12 0 143.36 116.736 260.096 260.096 260.096s260.096-116.736 260.096-260.096c0-144.384-116.736-261.12-260.096-261.12zM512 27.392c115.712 0 208.896 94.208 208.896 209.92 0 114.688-93.184 208.896-208.896 208.896s-208.896-94.208-208.896-208.896c0-115.712 93.184-209.92 208.896-209.92zM379.904 215.808h51.2c0-45.056 35.84-80.896 80.896-80.896s80.896 35.84 80.896 80.896h51.2c0-73.728-59.392-132.096-132.096-132.096s-132.096 58.368-132.096 132.096zM413.696 257.792c-23.552 0-41.984 19.456-41.984 43.008s18.432 43.008 41.984 43.008c23.552 0 43.008-19.456 43.008-43.008s-19.456-43.008-43.008-43.008zM606.208 257.792c-23.552 0-43.008 19.456-43.008 43.008s19.456 43.008 43.008 43.008c23.552 0 41.984-19.456 41.984-43.008s-18.432-43.008-41.984-43.008z" />
<glyph unicode="&#xe812;" glyph-name="heart" d="M683.008 655.104c108.544 0 195.584-88.064 195.584-196.608 0-72.704-23.552-123.904-76.8-186.368-8.192-10.24-11.264-13.312-33.792-37.888-26.624-29.696-60.416-60.416-104.448-97.28-18.432-15.36-38.912-31.744-64.512-52.224-10.24-8.192-20.48-15.36-34.816-27.648-4.096-3.072-17.408-13.312-18.432-13.312-7.168-6.144-12.288-10.24-18.432-14.336-9.216-8.192-21.504-8.192-30.72 0-6.144 4.096-57.344 44.032-71.68 55.296-25.6 20.48-46.080 36.864-64.512 52.224-45.056 36.864-77.824 67.584-105.472 97.28-21.504 23.552-25.6 28.672-33.792 38.912-52.224 61.44-75.776 112.64-75.776 185.344 0 108.544 88.064 196.608 195.584 196.608 73.728 0 137.216-39.936 171.008-99.328 33.792 59.392 97.28 99.328 171.008 99.328zM515.072 83.712c0 0 13.312 11.264 17.408 14.336 14.336 11.264 24.576 19.456 34.816 26.624 25.6 20.48 45.056 36.864 63.488 51.2 43.008 35.84 74.752 65.536 99.328 93.184 22.528 23.552 24.576 26.624 32.768 36.864 46.080 53.248 64.512 94.208 64.512 152.576 0 79.872-64.512 145.408-144.384 145.408-80.896 0-145.408-65.536-145.408-145.408 0-33.792-51.2-33.792-51.2 0 0 79.872-64.512 145.408-145.408 145.408-79.872 0-144.384-65.536-144.384-145.408 0-58.368 18.432-99.328 63.488-152.576 8.192-9.216 12.288-14.336 32.768-36.864 25.6-27.648 57.344-57.344 100.352-93.184 17.408-14.336 37.888-30.72 63.488-50.176 9.216-8.192 37.888-29.696 55.296-44.032 1.024 1.024 2.048 1.024 3.072 2.048z" />
<glyph unicode="&#xe813;" glyph-name="billing" d="M848.896 462.592v81.92c0 9.216-7.168 16.384-16.384 16.384h-640c-10.24 0-17.408-7.168-17.408-16.384v-81.92h673.792zM848.896 411.392h-673.792v-250.88c0-10.24 7.168-17.408 17.408-17.408h640c9.216 0 16.384 7.168 16.384 17.408v250.88zM192.512 612.096h640c36.864 0 67.584-30.72 67.584-67.584v-384c0-37.888-30.72-68.608-67.584-68.608h-640c-37.888 0-68.608 30.72-68.608 68.608v384c0 36.864 30.72 67.584 68.608 67.584zM401.408 283.392c-14.336 0-25.6 12.288-25.6 25.6 0 14.336 11.264 25.6 25.6 25.6h370.688c14.336 0 25.6-11.264 25.6-25.6 0-13.312-11.264-25.6-25.6-25.6h-370.688zM545.792 198.4c-13.312 0-25.6 11.264-25.6 25.6s12.288 25.6 25.6 25.6h226.304c14.336 0 25.6-11.264 25.6-25.6s-11.264-25.6-25.6-25.6h-226.304z" />
<glyph unicode="&#xe814;" glyph-name="launch" d="M413.696 73.472l-56.32-13.312c-8.192-2.048-17.408 1.024-23.552 7.168l-96.256 96.256c-6.144 6.144-8.192 15.36-6.144 23.552l13.312 58.368-20.48 19.456c-22.528 23.552-22.528 61.44 1.024 84.992 4.096 4.096 10.24 8.192 15.36 11.264l184.32 89.088 136.192 135.168c52.224 52.224 117.76 91.136 188.416 112.64l43.008 12.288c33.792 10.24 69.632-9.216 79.872-43.008 3.072-11.264 3.072-24.576 0-36.864l-12.288-39.936c-21.504-72.704-61.44-139.264-115.712-192.512l-133.12-131.072-78.848-194.56c-12.288-30.72-47.104-45.056-77.824-32.768-7.168 3.072-14.336 7.168-19.456 13.312l-21.504 20.48zM371.712 116.48l-84.992 86.016-3.072-13.312 75.776-75.776 12.288 3.072zM451.584 406.272l-188.416-91.136c-1.024 0-1.024-1.024-2.048-2.048-3.072-3.072-3.072-8.192 0-11.264l209.92-212.992c1.024-1.024 2.048-2.048 3.072-2.048 4.096-2.048 9.216 0 11.264 5.12l80.896 198.656c1.024 4.096 3.072 6.144 6.144 9.216l136.192 135.168c48.128 47.104 82.944 105.472 102.4 169.984l12.288 40.96c1.024 2.048 1.024 5.12 0 7.168-2.048 7.168-9.216 10.24-16.384 8.192l-41.984-12.288c-63.488-19.456-120.832-53.248-167.936-100.352l-138.24-137.216c-2.048-2.048-5.12-4.096-7.168-5.12zM146.432 51.968c-10.24-9.216-26.624-9.216-36.864 0-9.216 10.24-9.216 26.624 0 36.864l51.2 51.2c10.24 9.216 26.624 9.216 36.864 0 9.216-10.24 9.216-26.624 0-36.864l-51.2-51.2zM197.632 0.768c-10.24-9.216-26.624-9.216-36.864 0-9.216 10.24-9.216 26.624 0 36.864l51.2 51.2c10.24 9.216 26.624 9.216 36.864 0 9.216-10.24 9.216-26.624 0-36.864l-51.2-51.2zM248.832-50.432c-10.24-9.216-26.624-9.216-36.864 0-9.216 10.24-9.216 26.624 0 36.864l51.2 51.2c10.24 9.216 26.624 9.216 36.864 0 9.216-10.24 9.216-26.624 0-36.864l-51.2-51.2z" />
<glyph unicode="&#xe815;" glyph-name="breadcrumb" d="M604.16 352l-195.584-195.584c-10.24-9.216-10.24-25.6 0-35.84s26.624-10.24 35.84 0l214.016 212.992c9.216 10.24 9.216 26.624 0 36.864l-214.016 212.992c-9.216 10.24-25.6 10.24-35.84 0s-10.24-26.624 0-35.84l195.584-195.584z" />
<glyph unicode="&#xe816;" glyph-name="budget" d="M486.4 108.288c-87.040 7.168-145.408 50.176-161.792 118.784l63.488 25.6c11.264-49.152 46.080-80.896 98.304-88.064v159.744c-53.248 11.264-78.848 20.48-99.328 34.816-29.696 20.48-45.056 51.2-45.056 94.208 0 35.84 14.336 69.632 40.96 94.208s61.44 38.912 103.424 44.032v50.176c0 14.336 11.264 25.6 25.6 25.6s25.6-11.264 25.6-25.6v-51.2h1.024c78.848-6.144 130.048-46.080 144.384-114.688l-65.536-16.384c-8.192 37.888-35.84 65.536-76.8 75.776h-3.072v-156.672c55.296-11.264 82.944-21.504 105.472-36.864 29.696-21.504 44.032-52.224 44.032-94.208 0-75.776-57.344-129.024-148.48-138.24l-1.024-1.024v-46.080c0-14.336-11.264-25.6-25.6-25.6s-25.6 11.264-25.6 25.6v46.080zM537.6 165.632v0c49.152 7.168 76.8 34.816 76.8 76.8 0 34.816-22.528 56.32-75.776 68.608l-1.024 1.024v-146.432zM486.4 392.96v145.408c-47.104-8.192-76.8-36.864-76.8-75.776 0-35.84 22.528-56.32 76.8-69.632z" />
<glyph unicode="&#xe817;" glyph-name="burger" d="M846.848 570.112c14.336 0 25.6-12.288 25.6-25.6 0-14.336-11.264-25.6-25.6-25.6h-661.504c-14.336 0-25.6 11.264-25.6 25.6 0 13.312 11.264 25.6 25.6 25.6h661.504zM846.848 379.648c14.336 0 25.6-11.264 25.6-25.6s-11.264-25.6-25.6-25.6h-661.504c-14.336 0-25.6 11.264-25.6 25.6s11.264 25.6 25.6 25.6h661.504zM846.848 188.16c14.336 0 25.6-12.288 25.6-25.6 0-14.336-11.264-25.6-25.6-25.6h-661.504c-14.336 0-25.6 11.264-25.6 25.6 0 13.312 11.264 25.6 25.6 25.6h661.504z" />
<glyph unicode="&#xe818;" glyph-name="caret-down" d="M359.424 455.424c-10.24 10.24-26.624 10.24-35.84 0-10.24-10.24-10.24-26.624 0-35.84l169.984-171.008c10.24-10.24 26.624-10.24 36.864 0l169.984 171.008c10.24 9.216 10.24 25.6 0 35.84-9.216 10.24-25.6 10.24-35.84 0l-152.576-152.576-152.576 152.576z" />
<glyph unicode="&#xe819;" glyph-name="lock" d="M551.936 269.056v-64.512c0-21.504-17.408-37.888-38.912-37.888-20.48 0-37.888 16.384-37.888 37.888v64.512c-15.36 11.264-25.6 29.696-25.6 51.2 0 34.816 28.672 63.488 63.488 63.488 35.84 0 64.512-28.672 64.512-63.488 0-21.504-10.24-39.936-25.6-51.2zM289.792 535.296h444.416c37.888 0 67.584-30.72 67.584-67.584v-379.904c0-37.888-29.696-68.608-67.584-68.608h-444.416c-36.864 0-67.584 30.72-67.584 68.608v379.904c0 36.864 30.72 67.584 67.584 67.584zM289.792 484.096c-9.216 0-16.384-7.168-16.384-16.384v-379.904c0-9.216 7.168-17.408 16.384-17.408h444.416c9.216 0 16.384 8.192 16.384 17.408v379.904c0 9.216-7.168 16.384-16.384 16.384h-444.416zM371.712 535.296c0 75.776 64.512 141.312 140.288 141.312s141.312-65.536 141.312-141.312h51.2c0 103.424-89.088 192.512-192.512 192.512s-191.488-89.088-191.488-192.512h51.2z" />
<glyph unicode="&#xe81a;" glyph-name="mobile" d="M772.096 672.512v-640c0-37.888-30.72-68.608-67.584-68.608h-384c-37.888 0-68.608 30.72-68.608 68.608v640c0 36.864 30.72 67.584 68.608 67.584h384c36.864 0 67.584-30.72 67.584-67.584zM720.896 672.512c0 9.216-7.168 16.384-16.384 16.384h-384c-10.24 0-17.408-7.168-17.408-16.384v-640c0-10.24 7.168-17.408 17.408-17.408h384c9.216 0 16.384 7.168 16.384 17.408v640zM401.408 603.904c-14.336 0-25.6 11.264-25.6 25.6s11.264 25.6 25.6 25.6h226.304c13.312 0 25.6-11.264 25.6-25.6s-12.288-25.6-25.6-25.6h-226.304z" />
<glyph unicode="&#xe81b;" glyph-name="plan" d="M529.408 405.248l175.104 175.104c10.24 10.24 25.6 10.24 34.816 0 10.24-9.216 10.24-24.576 0-34.816l-174.080-174.080c2.048-6.144 3.072-12.288 3.072-19.456 0-30.72-25.6-56.32-56.32-56.32s-56.32 25.6-56.32 56.32c0 30.72 25.6 56.32 56.32 56.32 6.144 0 12.288-1.024 17.408-3.072zM512 11.008c188.416 0 340.992 152.576 340.992 340.992s-152.576 340.992-340.992 340.992c-188.416 0-340.992-152.576-340.992-340.992s152.576-340.992 340.992-340.992zM512-32c-211.968 0-384 172.032-384 384s172.032 384 384 384c211.968 0 384-172.032 384-384s-172.032-384-384-384zM756.736 226.048c-3.072 0-6.144 1.024-9.216 2.048l-52.224 21.504c-12.288 5.12-18.432 19.456-13.312 31.744 6.144 13.312 20.48 19.456 32.768 13.312l51.2-20.48c13.312-5.12 18.432-20.48 13.312-32.768-4.096-9.216-12.288-15.36-22.528-15.36zM266.24 226.048c-10.24 0-19.456 6.144-22.528 15.36-5.12 12.288 0 27.648 13.312 32.768l51.2 20.48c12.288 6.144 26.624 0 32.768-13.312 5.12-12.288-1.024-26.624-13.312-31.744l-52.224-21.504c-3.072-1.024-6.144-2.048-9.216-2.048zM300.032 322.304h-55.296c-14.336 0-24.576 11.264-24.576 25.6 0 13.312 10.24 24.576 24.576 24.576h55.296c13.312 0 24.576-11.264 24.576-24.576 0-14.336-11.264-25.6-24.576-25.6zM777.216 328.448h-56.32c-13.312 0-24.576 10.24-24.576 24.576 0 13.312 11.264 24.576 24.576 24.576h56.32c13.312 0 24.576-11.264 24.576-24.576 0-14.336-11.264-24.576-24.576-24.576zM317.44 408.32c-3.072 0-6.144 1.024-9.216 2.048l-51.2 21.504c-13.312 5.12-18.432 19.456-13.312 31.744s19.456 18.432 31.744 13.312l52.224-21.504c12.288-5.12 18.432-19.456 13.312-31.744-4.096-9.216-13.312-15.36-23.552-15.36zM705.536 408.32c-10.24 0-19.456 6.144-23.552 15.36-5.12 12.288 1.024 26.624 13.312 31.744l52.224 21.504c12.288 5.12 26.624-1.024 31.744-13.312s0-26.624-13.312-31.744l-51.2-21.504c-3.072-1.024-6.144-2.048-9.216-2.048zM363.52 475.904c-7.168 0-13.312 3.072-17.408 7.168l-39.936 39.936c-9.216 9.216-9.216 25.6 0 34.816 10.24 9.216 25.6 9.216 34.816 0l39.936-39.936c9.216-9.216 9.216-24.576 0-34.816-5.12-4.096-11.264-7.168-17.408-7.168zM431.104 521.984c-10.24 0-18.432 6.144-22.528 15.36l-21.504 51.2c-5.12 12.288 1.024 26.624 13.312 31.744s26.624 0 32.768-13.312l20.48-51.2c5.12-12.288 0-26.624-13.312-31.744-3.072-2.048-6.144-2.048-9.216-2.048zM591.872 521.984c-3.072 0-6.144 0-9.216 2.048-13.312 5.12-18.432 19.456-13.312 31.744l21.504 51.2c5.12 13.312 19.456 18.432 31.744 13.312s18.432-19.456 13.312-31.744l-21.504-51.2c-4.096-10.24-13.312-15.36-22.528-15.36zM509.952 532.224c-13.312 0-24.576 11.264-24.576 24.576v56.32c0 13.312 11.264 24.576 24.576 24.576s24.576-11.264 24.576-24.576v-56.32c0-13.312-11.264-24.576-24.576-24.576zM299.008 139.008c-12.288 0-21.504 9.216-21.504 21.504 0 11.264 9.216 20.48 21.504 20.48h425.984c12.288 0 21.504-9.216 21.504-20.48 0-12.288-9.216-21.504-21.504-21.504h-425.984z" />
<glyph unicode="&#xe81c;" glyph-name="plus" d="M537.6 377.6h208.896c14.336 0 25.6-11.264 25.6-25.6s-11.264-25.6-25.6-25.6h-208.896v-208.896c0-14.336-11.264-25.6-25.6-25.6s-25.6 11.264-25.6 25.6v208.896h-208.896c-14.336 0-25.6 11.264-25.6 25.6s11.264 25.6 25.6 25.6h208.896v208.896c0 14.336 11.264 25.6 25.6 25.6s25.6-11.264 25.6-25.6v-208.896z" />
<glyph unicode="&#xe81d;" glyph-name="profile" d="M512 17.152c182.272 0 328.704 147.456 328.704 328.704 0 182.272-146.432 329.728-328.704 329.728-181.248 0-328.704-147.456-328.704-329.728 0-181.248 147.456-328.704 328.704-328.704zM512-25.856c-204.8 0-371.712 166.912-371.712 371.712 0 205.824 166.912 371.712 371.712 371.712 205.824 0 371.712-165.888 371.712-371.712 0-204.8-165.888-371.712-371.712-371.712zM335.872 421.632c-23.552 0-41.984 18.432-41.984 41.984s18.432 43.008 41.984 43.008c23.552 0 43.008-19.456 43.008-43.008s-19.456-41.984-43.008-41.984zM677.888 421.632c-24.576 0-43.008 18.432-43.008 41.984s18.432 43.008 43.008 43.008c23.552 0 41.984-19.456 41.984-43.008s-18.432-41.984-41.984-41.984zM512 160.512c-106.496 0-191.488 84.992-191.488 191.488v21.504h384v-21.504c0-106.496-86.016-191.488-192.512-191.488zM512 202.496c75.776 0 137.216 56.32 147.456 128h-294.912c10.24-71.68 72.704-128 147.456-128z" />
<glyph unicode="&#xe81e;" glyph-name="refresh" d="M776.192 362.24c-6.144 139.264-120.832 249.856-262.144 249.856-144.384 0-262.144-117.76-262.144-262.144 0-145.408 117.76-262.144 262.144-262.144 60.416 0 116.736 19.456 162.816 56.32 11.264 9.216 27.648 7.168 35.84-4.096 9.216-11.264 7.168-27.648-4.096-35.84-55.296-44.032-122.88-67.584-194.56-67.584-173.056 0-313.344 140.288-313.344 313.344s140.288 313.344 313.344 313.344c169.984 0 307.2-134.144 313.344-302.080l46.080 27.648c10.24 6.144 23.552 3.072 29.696-7.168 3.072-6.144 4.096-14.336 0-21.504l-84.992-147.456c-5.12-10.24-18.432-14.336-28.672-8.192-3.072 2.048-6.144 4.096-8.192 8.192l-86.016 150.528c-6.144 10.24-2.048 23.552 8.192 28.672 6.144 4.096 14.336 4.096 21.504 0l51.2-29.696z" />
<glyph unicode="&#xe81f;" glyph-name="remove" d="M730.112 518.912v-422.912c0-37.888-30.72-68.608-68.608-68.608h-299.008c-37.888 0-67.584 30.72-67.584 68.608v422.912h-38.912c-14.336 0-25.6 11.264-25.6 25.6 0 13.312 11.264 25.6 25.6 25.6h123.904v59.392c0 14.336 11.264 25.6 25.6 25.6h212.992c14.336 0 25.6-11.264 25.6-25.6v-59.392h123.904c14.336 0 25.6-12.288 25.6-25.6 0-14.336-11.264-25.6-25.6-25.6h-37.888zM678.912 518.912h-332.8v-422.912c0-9.216 7.168-17.408 16.384-17.408h299.008c9.216 0 17.408 8.192 17.408 17.408v422.912zM431.104 570.112h161.792v33.792h-161.792v-33.792z" />
<glyph unicode="&#xe820;" glyph-name="theme" d="M640 51.968c128 0 225.28 102.4 225.28 248.832 0 79.872-35.84 175.104-95.232 248.832-68.608 86.016-163.84 136.192-274.432 136.192s-195.584-35.84-251.904-101.376c-49.152-56.32-73.728-131.072-75.776-208.896-4.096-148.48 106.496-336.896 195.584-292.864 20.48 10.24 32.768 27.648 36.864 49.152 2.048 15.36 1.024 29.696-3.072 50.176-1.024 3.072-1.024 6.144-2.048 10.24-4.096 21.504-6.144 29.696-5.12 35.84 1.024 3.072 0 2.048 5.12 3.072s15.36-3.072 30.72-17.408c7.168-7.168 16.384-16.384 27.648-28.672 5.12-6.144 26.624-30.72 30.72-34.816 26.624-29.696 46.080-49.152 67.584-65.536 28.672-20.48 58.368-32.768 88.064-32.768zM640 103.168c-33.792 0-66.56 24.576-117.76 80.896-3.072 5.12-24.576 28.672-30.72 35.84-12.288 13.312-22.528 23.552-31.744 31.744-25.6 23.552-50.176 34.816-75.776 29.696s-40.96-22.528-44.032-47.104c-2.048-14.336-1.024-24.576 5.12-52.224 1.024-4.096 1.024-7.168 2.048-9.216 5.12-28.672 4.096-38.912-6.144-44.032-13.312-6.144-43.008 15.36-71.68 63.488-31.744 54.272-52.224 123.904-50.176 181.248 1.024 67.584 22.528 131.072 62.464 177.152 47.104 54.272 117.76 83.968 214.016 83.968 94.208 0 175.104-43.008 235.52-117.76 51.2-64.512 82.944-148.48 82.944-216.064 0-118.784-75.776-197.632-174.080-197.632zM448.512 480c-23.552 0-43.008 19.456-43.008 43.008s19.456 41.984 43.008 41.984c23.552 0 41.984-18.432 41.984-41.984s-18.432-43.008-41.984-43.008zM596.992 436.992c-23.552 0-41.984 19.456-41.984 43.008s18.432 43.008 41.984 43.008c23.552 0 43.008-19.456 43.008-43.008s-19.456-43.008-43.008-43.008zM683.008 308.992c-23.552 0-43.008 19.456-43.008 43.008s19.456 43.008 43.008 43.008c23.552 0 41.984-19.456 41.984-43.008s-18.432-43.008-41.984-43.008zM640 180.992c-23.552 0-43.008 19.456-43.008 43.008s19.456 43.008 43.008 43.008c23.552 0 43.008-19.456 43.008-43.008s-19.456-43.008-43.008-43.008z" />
<glyph unicode="&#xe821;" glyph-name="tick" d="M282.624 319.232c-10.24 9.216-26.624 9.216-35.84 0-10.24-10.24-10.24-26.624 0-36.864l132.096-132.096c10.24-10.24 25.6-10.24 35.84 0l362.496 362.496c10.24 10.24 10.24 26.624 0 36.864-9.216 9.216-25.6 9.216-35.84 0l-344.064-345.088-114.688 114.688z" />
<glyph unicode="&#xe822;" glyph-name="x" d="M476.16 352l-152.576 152.576c-10.24 10.24-10.24 26.624 0 35.84 9.216 10.24 25.6 10.24 35.84 0l152.576-152.576 152.576 152.576c10.24 10.24 26.624 10.24 35.84 0 10.24-9.216 10.24-25.6 0-35.84l-152.576-152.576 152.576-152.576c10.24-10.24 10.24-26.624 0-35.84-9.216-10.24-25.6-10.24-35.84 0l-152.576 152.576-152.576-152.576c-10.24-10.24-26.624-10.24-35.84 0-10.24 9.216-10.24 25.6 0 35.84l152.576 152.576z" />
<glyph unicode="&#xe823;" glyph-name="rules" d="M480.256 484.096h63.488l-7.168-208.896h-49.152l-7.168 208.896zM512 245.504c24.576 0 43.008-18.432 43.008-43.008 0-23.552-18.432-41.984-43.008-41.984s-43.008 18.432-43.008 41.984c0 24.576 18.432 43.008 43.008 43.008zM157.696 127.744l303.104 527.36c16.384 28.672 53.248 37.888 81.92 21.504 9.216-5.12 16.384-12.288 21.504-21.504l304.128-527.36c16.384-28.672 6.144-64.512-22.528-80.896-9.216-5.12-19.456-8.192-29.696-8.192h-607.232c-32.768 0-59.392 26.624-59.392 59.392 0 10.24 3.072 20.48 8.192 29.696zM200.704 98.048c0-4.096 4.096-8.192 8.192-8.192h607.232c2.048 0 3.072 0 4.096 1.024 4.096 2.048 6.144 7.168 3.072 11.264l-303.104 527.36c-1.024 1.024-2.048 2.048-3.072 3.072-4.096 2.048-9.216 1.024-12.288-3.072l-303.104-527.36c-1.024-1.024-1.024-2.048-1.024-4.096z" />
<glyph unicode="&#xe824;" glyph-name="more" d="M512 314.112c-21.504 0-37.888 16.384-37.888 37.888s16.384 38.912 37.888 38.912c21.504 0 38.912-17.408 38.912-38.912s-17.408-37.888-38.912-37.888zM332.8 314.112c-21.504 0-37.888 16.384-37.888 37.888s16.384 38.912 37.888 38.912c21.504 0 38.912-17.408 38.912-38.912s-17.408-37.888-38.912-37.888zM691.2 314.112c-21.504 0-37.888 16.384-37.888 37.888s16.384 38.912 37.888 38.912c21.504 0 38.912-17.408 38.912-38.912s-17.408-37.888-38.912-37.888z" />
<glyph unicode="&#xe825;" glyph-name="settings" d="M742.4 341.76v-202.752c0-9.216-7.168-17.408-17.408-17.408h-425.984c-9.216 0-17.408 8.192-17.408 17.408v425.984c0 10.24 8.192 17.408 17.408 17.408h202.752c13.312 0 25.6 11.264 25.6 25.6s-12.288 25.6-25.6 25.6h-202.752c-37.888 0-68.608-30.72-68.608-68.608v-425.984c0-37.888 30.72-68.608 68.608-68.608h425.984c37.888 0 68.608 30.72 68.608 68.608v202.752c0 13.312-11.264 25.6-25.6 25.6s-25.6-12.288-25.6-25.6zM416.768 292.608c-7.168 21.504-3.072 46.080 14.336 63.488l328.704 328.704c23.552 23.552 61.44 23.552 84.992 0s23.552-61.44 0-84.992l-328.704-328.704c-16.384-17.408-40.96-21.504-62.464-14.336l-26.624-25.6c-9.216-9.216-25.6-9.216-35.84 1.024-9.216 10.24-9.216 25.6 1.024 35.84l24.576 24.576zM464.896 315.136c2.048-1.024 5.12-3.072 7.168-5.12 1.024-1.024 3.072-3.072 4.096-5.12 1.024 0 3.072 1.024 4.096 2.048l328.704 328.704c3.072 4.096 3.072 9.216 0 13.312-4.096 3.072-9.216 3.072-13.312 0l-328.704-328.704c-1.024-2.048-2.048-3.072-2.048-5.12z" />
<glyph unicode="&#xe826;" glyph-name="target" d="M512-36.096c-214.016 0-388.096 174.080-388.096 388.096s174.080 388.096 388.096 388.096c214.016 0 388.096-174.080 388.096-388.096s-174.080-388.096-388.096-388.096zM512 15.104c186.368 0 336.896 150.528 336.896 336.896s-150.528 336.896-336.896 336.896c-186.368 0-336.896-150.528-336.896-336.896s150.528-336.896 336.896-336.896zM512 87.808c-146.432 0-264.192 117.76-264.192 264.192s117.76 264.192 264.192 264.192c146.432 0 264.192-117.76 264.192-264.192s-117.76-264.192-264.192-264.192zM512 139.008c117.76 0 212.992 95.232 212.992 212.992s-95.232 212.992-212.992 212.992c-117.76 0-212.992-95.232-212.992-212.992s95.232-212.992 212.992-212.992zM512 198.4c-84.992 0-153.6 68.608-153.6 153.6s68.608 153.6 153.6 153.6c84.992 0 153.6-68.608 153.6-153.6s-68.608-153.6-153.6-153.6zM512 249.6c56.32 0 102.4 46.080 102.4 102.4s-46.080 102.4-102.4 102.4c-56.32 0-102.4-46.080-102.4-102.4s46.080-102.4 102.4-102.4zM512 308.992c-23.552 0-43.008 19.456-43.008 43.008s19.456 43.008 43.008 43.008c23.552 0 43.008-19.456 43.008-43.008s-19.456-43.008-43.008-43.008z" />
<glyph unicode="&#xe827;" glyph-name="team" d="M616.448 33.536c62.464 21.504 115.712 59.392 154.624 109.568-57.344 10.24-116.736 30.72-180.224 61.44-15.36-19.456-32.768-38.912-52.224-58.368 46.080-34.816 71.68-71.68 77.824-112.64zM575.488 23.296c-4.096 31.744-24.576 62.464-67.584 92.16-31.744-27.648-65.536-55.296-103.424-80.896 33.792-11.264 69.632-17.408 107.52-17.408 21.504 0 43.008 2.048 63.488 6.144zM190.464 277.248c51.2-50.176 101.376-74.752 150.528-74.752 68.608 0 87.040-1.024 114.688-10.24 14.336-5.12 29.696-11.264 47.104-22.528 17.408 18.432 34.816 36.864 50.176 55.296-104.448 59.392-217.088 147.456-336.896 265.216-21.504-44.032-32.768-92.16-32.768-144.384 0-23.552 2.048-46.080 7.168-68.608zM216.064 201.472c30.72-62.464 80.896-114.688 142.336-146.432 40.96 26.624 78.848 55.296 111.616 84.992-10.24 5.12-19.456 9.216-27.648 12.288-21.504 6.144-37.888 8.192-101.376 8.192-41.984 0-83.968 13.312-124.928 40.96zM797.696 183.040c27.648 48.128 43.008 103.424 43.008 162.816 0 16.384-1.024 31.744-3.072 47.104-8.192-3.072-15.36-9.216-25.6-20.48-1.024-1.024-1.024-1.024-3.072-3.072-24.576-26.624-45.056-38.912-83.968-38.912-17.408 0-34.816 3.072-51.2 8.192-15.36-33.792-34.816-67.584-56.32-99.328 63.488-30.72 123.904-50.176 180.224-56.32zM237.568 528.128c122.88-120.832 236.544-210.944 340.992-268.288 22.528 30.72 40.96 62.464 56.32 96.256-52.224 29.696-94.208 82.944-101.376 142.336-11.264 95.232-57.344 152.576-139.264 152.576v3.072c-63.488-24.576-118.784-69.632-156.672-125.952zM829.44 434.944c-18.432 63.488-54.272 118.784-102.4 160.768 0-76.8-12.288-149.504-36.864-217.088 11.264-3.072 23.552-5.12 34.816-5.12 24.576 0 34.816 6.144 52.224 24.576 2.048 2.048 2.048 2.048 3.072 3.072 16.384 18.432 30.72 28.672 49.152 33.792zM479.232 673.536c54.272-29.696 87.040-90.112 96.256-169.984 6.144-44.032 36.864-83.968 75.776-107.52 25.6 71.68 35.84 149.504 31.744 231.424-50.176 30.72-108.544 48.128-171.008 48.128-11.264 0-21.504-1.024-32.768-2.048zM512-25.856c-204.8 0-371.712 166.912-371.712 371.712 0 205.824 166.912 371.712 371.712 371.712 205.824 0 371.712-165.888 371.712-371.712 0-204.8-165.888-371.712-371.712-371.712z" />
<glyph unicode="&#xe828;" glyph-name="alert" d="M768 160.512v0c-2.048 2.048-5.12 7.168-10.24 12.288-7.168 13.312-17.408 28.672-25.6 49.152-20.48 43.008-32.768 92.16-32.768 124.928v71.68c0 115.712-51.2 189.44-148.48 204.8 2.048 5.12 2.048 10.24 2.048 15.36 0 25.6-17.408 44.032-43.008 44.032s-44.032-18.432-44.032-44.032c0-5.12 0-10.24 3.072-15.36-97.28-15.36-148.48-89.088-148.48-206.848v-71.68c0-35.84-13.312-81.92-33.792-125.952-7.168-17.408-17.408-35.84-25.6-46.080v0c-2.048-2.048-5.12-7.168-7.168-7.168v0 0c-25.6-8.192-25.6-49.152 5.12-51.2v0h140.288c13.312-49.152 56.32-87.040 107.52-87.040s97.28 35.84 107.52 87.040h141.312c37.888-5.12 40.96 37.888 12.288 46.080zM512 75.52c-22.528 0-43.008 15.36-53.248 33.792h107.52c-10.24-20.48-30.72-33.792-54.272-33.792zM320.512 160.512v0c5.12 10.24 12.288 22.528 17.408 35.84 23.552 48.128 38.912 102.4 38.912 145.408v71.68c0 105.472 43.008 158.72 135.168 158.72h5.12c90.112 0 133.12-53.248 133.12-155.648v-71.68c0-44.032 15.36-97.28 35.84-146.432v-2.048c5.12-13.312 10.24-23.552 15.36-33.792l3.072-2.048h-384z" />
<glyph unicode="&#xe829;" glyph-name="loading" d="M501.76-10.496v63.488c169.984 0 309.248 139.264 309.248 309.248 0 112.64-60.416 214.016-156.672 269.312l32.768 55.296c114.688-65.536 187.392-188.416 187.392-324.608 0-205.824-166.912-372.736-372.736-372.736zM501.76 736v-63.488c-171.008 0-309.248-139.264-309.248-310.272 0-112.64 60.416-214.016 156.672-269.312l-31.744-55.296c-115.712 65.536-189.44 189.44-189.44 324.608 0 206.848 166.912 373.76 373.76 373.76z" />
<glyph unicode="&#xe82a;" glyph-name="palette" d="M516.096 736c-238.592 0-431.104-191.488-431.104-431.104 0-72.704 17.408-144.384 56.32-208.896 55.296-84.992 106.496-128 148.48-128 21.504 0 38.912 8.192 56.32 21.504 33.792 33.792 33.792 94.208 0 128-9.216 8.192-5.12 12.288-5.12 17.408 5.12 8.192 13.312 12.288 21.504 8.192 13.312 0 21.504-8.192 29.696-17.408l25.6-33.792c51.2-68.608 123.904-166.912 239.616-166.912 72.704 5.12 140.288 38.912 187.392 98.304v4.096l4.096 5.12c17.408 20.48 29.696 41.984 43.008 63.488v4.096c110.592 208.896 33.792 470.016-175.104 584.704-63.488 33.792-132.096 51.2-200.704 51.2zM848.896 129.792c-12.288-20.48-25.6-37.888-37.888-55.296l-4.096-8.192c-34.816-47.104-90.112-76.8-149.504-76.8-86.016 0-149.504 84.992-196.608 145.408-8.192 12.288-17.408 25.6-25.6 33.792-17.408 21.504-43.008 33.792-72.704 37.888-29.696 0-55.296-16.384-67.584-41.984-13.312-21.504-9.216-51.2 8.192-72.704 17.408-25.6 21.504-43.008 4.096-55.296-4.096-4.096-12.288-9.216-17.408-9.216-12.288 0-46.080 9.216-106.496 98.304-98.304 179.2-29.696 409.6 149.504 507.904s409.6 33.792 512-149.504c64.512-110.592 64.512-246.784 4.096-354.304zM448.512 471.808c34.816 0 63.488 28.672 63.488 63.488 0 35.84-28.672 64.512-63.488 64.512-35.84 0-64.512-28.672-64.512-64.512 0-34.816 28.672-63.488 64.512-63.488zM665.6 416.512c35.84 0 64.512 28.672 64.512 63.488 0 35.84-28.672 64.512-64.512 64.512-34.816 0-63.488-28.672-63.488-64.512 0-34.816 28.672-63.488 63.488-63.488zM768 237.312c35.84 0 64.512 28.672 64.512 63.488 0 35.84-28.672 64.512-64.512 64.512-34.816 0-63.488-28.672-63.488-64.512 0-34.816 28.672-63.488 63.488-63.488zM665.6 66.304c35.84 0 64.512 28.672 64.512 63.488 0 35.84-28.672 64.512-64.512 64.512-34.816 0-63.488-28.672-63.488-64.512 0-34.816 28.672-63.488 63.488-63.488z" />
<glyph unicode="&#xe82c;" glyph-name="circles" d="M384 70.4c-155.648 0-281.6 125.952-281.6 281.6s125.952 281.6 281.6 281.6c155.648 0 281.6-125.952 281.6-281.6s-125.952-281.6-281.6-281.6zM384 121.6c126.976 0 230.4 103.424 230.4 230.4s-103.424 230.4-230.4 230.4c-126.976 0-230.4-103.424-230.4-230.4s103.424-230.4 230.4-230.4zM640 70.4c-155.648 0-281.6 125.952-281.6 281.6s125.952 281.6 281.6 281.6c155.648 0 281.6-125.952 281.6-281.6s-125.952-281.6-281.6-281.6zM640 121.6c126.976 0 230.4 103.424 230.4 230.4s-103.424 230.4-230.4 230.4c-126.976 0-230.4-103.424-230.4-230.4s103.424-230.4 230.4-230.4z" />
<glyph unicode="&#xe82d;" glyph-name="eye" d="M53.248 335.616c-8.192 9.216-8.192 23.552 0 32.768 141.312 164.864 293.888 247.808 458.752 247.808s317.44-82.944 458.752-247.808c8.192-9.216 8.192-23.552 0-32.768-141.312-164.864-293.888-247.808-458.752-247.808s-317.44 82.944-458.752 247.808zM512 139.008c143.36 0 277.504 70.656 405.504 212.992-128 143.36-262.144 212.992-405.504 212.992-142.336 0-277.504-69.632-405.504-212.992 128-142.336 263.168-212.992 405.504-212.992zM512 160.512c-106.496 0-191.488 84.992-191.488 191.488s84.992 192.512 191.488 192.512c106.496 0 192.512-86.016 192.512-192.512s-86.016-191.488-192.512-191.488zM576.512 352c34.816 0 63.488 28.672 63.488 64.512 0 34.816-28.672 63.488-63.488 63.488-35.84 0-64.512-28.672-64.512-63.488 0-35.84 28.672-64.512 64.512-64.512z" />
<glyph unicode="&#xe83b;" glyph-name="play" d="M789.504 327.424l-425.984-248.832c-4.115-2.419-9.064-3.847-14.346-3.847-15.835 0-28.672 12.837-28.672 28.672 0 0.273 0.004 0.544 0.011 0.815l-0.001-0.040v495.616c-0.007 0.231-0.010 0.503-0.010 0.775 0 15.835 12.837 28.672 28.672 28.672 5.283 0 10.232-1.429 14.482-3.921l-0.135 0.073 425.984-247.808c8.885-4.986 14.791-14.347 14.791-25.088s-5.906-20.102-14.647-25.014l-0.144-0.074z" />
<glyph unicode="&#xe900;" glyph-name="edit" d="M755.2 104.533c14.138 0 25.6-11.462 25.6-25.6 0-13.817-10.946-25.078-24.64-25.582l-327.202-0.018c-14.138 0-25.6 11.462-25.6 25.6 0 13.817 10.946 25.078 24.64 25.582l327.202 0.018zM356.942 104.533c14.138 0 25.6-11.462 25.6-25.6 0-13.817-10.946-25.078-24.64-25.582l-89.102-0.018c-14.138 0-25.6 11.462-25.6 25.6 0 13.817 10.946 25.078 24.64 25.582l89.102 0.018zM669.929 654.353c25.886 25.886 67.855 25.886 93.741 0s25.886-67.855 0-93.741v0l-354.133-354.133c-19.289-19.289-47.509-24.205-71.349-14.747l-34.474-33.536c-10.136-9.857-26.344-9.63-36.2 0.506-9.604 9.876-9.635 25.517-0.254 35.43l0.76 0.771 33.555 32.681c-10.157 24.106-5.416 52.999 14.221 72.636v0zM727.467 618.149c-5.891 5.891-15.442 5.891-21.333 0v0l-354.742-354.778c-5.275-5.924-5.072-15.008 0.609-20.688 5.891-5.891 15.442-5.891 21.333 0v0l354.742 354.778c5.275 5.924 5.072 15.008-0.609 20.688z" />
<glyph unicode="&#xe901;" glyph-name="help" d="M512 706.133c195.582 0 354.133-158.551 354.133-354.133s-158.551-354.133-354.133-354.133c-195.582 0-354.133 158.551-354.133 354.133s158.551 354.133 354.133 354.133zM512 654.933c-167.305 0-302.933-135.628-302.933-302.933s135.628-302.933 302.933-302.933c167.305 0 302.933 135.628 302.933 302.933s-135.628 302.933-302.933 302.933zM512 262.4c21.208 0 38.4-17.192 38.4-38.4s-17.192-38.4-38.4-38.4c-21.208 0-38.4 17.192-38.4 38.4s17.192 38.4 38.4 38.4zM513.147 518.4c29.322 0 52.779-7.639 70.372-23.366s26.615-35.948 26.615-60.662c0-15.727-3.609-28.758-12.18-41.34l-0.861-1.249-0.565-0.817c-4.329-6.232-8.772-11.961-27.895-29.389-25.262-22.018-27.762-35.049-28.213-56.169 0-4.492 0.8-8.816 2.4-12.969l1.867-4.097h-67.834c2.844 5.479 4.267 11.168 4.267 17.067 0 28.758 7.669 46.283 33.381 70.997 1.263 1.078 4.764 4.17 8.827 7.837l3.127 2.835 1.992 1.822c4.643 4.262 9.145 8.513 11.316 10.872 7.669 8.987 11.729 18.873 11.729 30.106 0 23.366-16.691 39.093-41.952 39.093s-43.843-17.223-49.509-45.824l-1.014-6.301-53.681 15.278c4.060 25.613 16.24 46.283 35.637 62.46 19.397 15.727 43.757 23.816 72.176 23.816z" />
</font>
</defs>
</svg>
